<svg xmlns="http://www.w3.org/2000/svg" width="1200" height="630" viewBox="0 0 1200 630" role="img" aria-label="QuestPDF invoice generation concept">
  <defs>
    <linearGradient id="g" x1="0" x2="1" y1="0" y2="1">
      <stop offset="0%" stop-color="#0f0" stop-opacity="0.15"/>
      <stop offset="100%" stop-color="#0f0" stop-opacity="0.02"/>
    </linearGradient>
    <linearGradient id="bar" x1="0" x2="0" y1="0" y2="1">
      <stop offset="0%" stop-color="#18ff7a"/>
      <stop offset="100%" stop-color="#067d3a"/>
    </linearGradient>
    <style>
      text { font-family: 'Fira Code', monospace; }
      .title { font-size: 54px; font-weight: 600; fill:#18ff7a; }
      .subtitle { font-size: 26px; fill:#c8f7d8; opacity:.9; }
      .code { font-size: 20px; fill:#c8f7d8; }
      .dim { fill:#7ccf99; opacity:.6; }
    </style>
  </defs>
  <rect width="1200" height="630" fill="#101010"/>
  <rect width="1200" height="630" fill="url(#g)"/>
  <text x="80" y="120" class="title">QuestPDF + .NET</text>
  <text x="82" y="170" class="subtitle">Clean, controllable invoice generation</text>
  <g transform="translate(80 220)">
    <rect x="0" y="0" width="560" height="300" rx="12" fill="#171c17" stroke="#18ff7a" stroke-opacity=".35" />
    <text x="24" y="48" class="code">page.Header().Text("Invoice").FontSize(20).Bold();</text>
    <text x="24" y="88" class="code">page.Content().Column(col =&gt; {</text>
    <text x="54" y="120" class="code dim">col.Item().Text("Client: Example Corp");</text>
    <text x="54" y="150" class="code dim">col.Item().Table(table =&gt; { ... });</text>
    <text x="24" y="190" class="code">page.Footer().AlignCenter().Text(t =&gt; {</text>
    <text x="54" y="220" class="code dim">t.CurrentPageNumber();</text>
    <text x="24" y="250" class="code">});</text>
  </g>
  <g transform="translate(770 250)">
    <rect x="0" y="0" width="300" height="210" rx="10" fill="#171c17" stroke="#18ff7a" stroke-opacity=".35" />
    <rect x="34" y="55" width="60" height="140" rx="4" fill="url(#bar)"/>
    <rect x="112" y="20" width="60" height="175" rx="4" fill="url(#bar)" opacity=".8"/>
    <rect x="190" y="95" width="60" height="100" rx="4" fill="url(#bar)" opacity=".6"/>
    <text x="62" y="38" class="code" fill="#18ff7a">Metrics</text>
  </g>
</svg>
